{"title":"The Avengers 2012 DVDRip x264 AAC-UNiQUE","uid":7547130,"size":2524243173,"categoryP":"video","categoryS":"movies","magnet":"?xt=urn:btih:a0025536f93e85c304405d199a3301e73ec00d4f&amp;dn=The+Avengers+2012+DVDRip+x264+AAC-UNiQUE&amp;tr=udp%3A%2F%2Ftracker.openbittorrent.com%3A80&amp;tr=udp%3A%2F%2Fopen.demonii.com%3A1337&amp;tr=udp%3A%2F%2Ftracker.coppersurfer.tk%3A6969&amp;tr=udp%3A%2F%2Fexodus.desync.com%3A6969","seeders":0,"leechers":0,"uploader":"HeroMaster","files":-1,"time":1345335795,"description":"[[.........why be the same as everyone else when YOU can be UNiQUE.........]]             \n          \nGeneral\nSubtitles                                : Hardcoded for foreign parts only\nFormat                                   : MPEG-4\nFormat profile                           : Base Media\nCodec ID                                 : isom\nFile size                                : 2.32 GiB\nDuration                                 : 2h 17mn\nOverall bit rate mode                    : Variable\nOverall bit rate                         : 2 419 Kbps\nEncoded date                             : UTC 2012-08-19 08:48:13\n\nVideo\nID                                       : 1\nFormat                                   : AVC\nFormat/Info                              : Advanced Video Codec\nFormat profile                           : &lt;a class=&quot;__cf_email__&quot; href=&quot;/cdn-cgi/l/email-protection&quot; data-cfemail=&quot;a7efcec0cfe7eb938996&quot;&gt;[email&amp;#160;protected]&lt;/a&gt;&lt;script data-cfhash='f9e31' type=&quot;text/javascript&quot;&gt;\n/* &lt;![CDATA[ */!function(){try{var t=&quot;currentScript&quot;in document?document.currentScript:function(){for(var t=document.getElementsByTagName(&quot;script&quot;),e=t.length;e--;)if(t[e].getAttribute(&quot;data-cfhash&quot;))return t[e]}();if(t&amp;&amp;t.previousSibling){var e,r,n,i,c=t.previousSibling,a=c.getAttribute(&quot;data-cfemail&quot;);if(a){for(e=&quot;&quot;,r=parseInt(a.substr(0,2),16),n=2;a.length-n;n+=2)i=parseInt(a.substr(n,2),16)^r,e+=String.fromCharCode(i);e=document.createTextNode(e),c.parentNode.replaceChild(e,c)}t.parentNode.removeChild(t);}}catch(u){}}()/* ]]&gt; */&lt;/script&gt;\nFormat settings, CABAC                   : Yes\nFormat settings, ReFrames                : 3 frames\nCodec ID                                 : avc1\nCodec ID/Info                            : Advanced Video Coding\nDuration                                 : 2h 17mn\nBit rate mode                            : Variable\nBit rate                                 : 2 071 Kbps\nMaximum bit rate                         : 40.0 Mbps\nWidth                                    : 720 pixels\nHeight                                   : 384 pixels\nDisplay aspect ratio                     : 1.85:1\nFrame rate mode                          : Constant\nFrame rate                               : 25.000 fps\nColor space                              : YUV\nChroma subsampling                       : 4:2:0\nBit depth                                : 8 bits\nScan type                                : Progressive\nBits/(Pixel*Frame)                       : 0.300\nStream size                              : 1.98 GiB (86%)\u0001\nWriting library                          : x264 core 125 r2208 d9d2288\n\nAudio\nID                                       : 2\nFormat                                   : AAC\nFormat/Info                              : Advanced Audio Codec\nFormat profile                           : LC\nCodec ID                                 : 40\nDuration                                 : 2h 17mn\nBit rate mode                            : Variable\nBit rate                                 : 345 Kbps\nMaximum bit rate                         : 429 Kbps\nChannel(s)                               : 6 channels\nChannel positions                        : Front: L C R, Side: L R, LFE\nSampling rate                            : 48.0 KHz\nCompression mode                         : Lossy\nStream size                              : 338 MiB (14%)\nLanguage                                 : English\nEncoded date                             : UTC 2012-08-19 08:48:56\n\nSource : x264 AC3-NYDIC - Thanks!                                     \n\nStoryline\nNick Fury of S.H.I.E.L.D. brings together a team of super humans to form The Avengers to help save the Earth from Loki and his army.\n\niMDB: http://www.imdb.com/title/tt0848228/\n\n\nPoster:\n\n &lt;a href=&quot;\nhttp://i.imgur.com/a5vk4.jpg&quot; rel=&quot;nofollow&quot; target=&quot;_NEW&quot;&gt;\nhttp://i.imgur.com/a5vk4.jpg&lt;/a&gt;\n\n\nScreenshots:\n\n &lt;a href=&quot;\nhttp://i.imgur.com/zXo0g.jpg&quot; rel=&quot;nofollow&quot; target=&quot;_NEW&quot;&gt;\nhttp://i.imgur.com/zXo0g.jpg&lt;/a&gt;\n\n\nENJOY!","torrent":{"xt":"urn:btih:a0025536f93e85c304405d199a3301e73ec00d4f","amp;dn":"The+Avengers+2012+DVDRip+x264+AAC-UNiQUE","amp;tr":["udp%3A%2F%2Ftracker.openbittorrent.com%3A80","udp%3A%2F%2Fopen.demonii.com%3A1337","udp%3A%2F%2Ftracker.coppersurfer.tk%3A6969","udp%3A%2F%2Fexodus.desync.com%3A6969"],"infoHash":"a0025536f93e85c304405d199a3301e73ec00d4f","infoHashBuffer":{"type":"Buffer","data":[160,2,85,54,249,62,133,195,4,64,93,25,154,51,1,231,62,192,13,79]},"announce":[],"urlList":[]}}